<?xml version="1.0" encoding="utf-8"?>
<!-- Generator: Adobe Illustrator 19.2.1, SVG Export Plug-In . SVG Version: 6.00 Build 0)  -->
<svg version="1.1" id="Layer_1" xmlns="http://www.w3.org/2000/svg" xmlns:xlink="http://www.w3.org/1999/xlink" x="0px" y="0px"
	 viewBox="0 0 612 792" style="enable-background:new 0 0 612 792;" xml:space="preserve">
<style type="text/css">
	.st0{fill:none;stroke:#F47524;stroke-width:4;stroke-miterlimit:10;}
	.st1{clip-path:url(#SVGID_2_);}
	.st2{clip-path:url(#SVGID_4_);fill:#231F20;}
</style>
<circle class="st0" cx="337" cy="387.2" r="79.9"/>
<g>
	<g>
		<defs>
			<rect id="SVGID_1_" x="295.4" y="337.6" width="83.1" height="107.6"/>
		</defs>
		<clipPath id="SVGID_2_">
			<use xlink:href="#SVGID_1_"  style="overflow:visible;"/>
		</clipPath>
		<g class="st1">
			<defs>
				<rect id="SVGID_3_" x="295.4" y="337.6" width="83.1" height="107.6"/>
			</defs>
			<clipPath id="SVGID_4_">
				<use xlink:href="#SVGID_3_"  style="overflow:visible;"/>
			</clipPath>
			<path class="st2" d="M335.4,370.8c0,0-6.5-4.1-17.1-1.3c-4.1,1.1-7.1,3.8-9.3,6.7c-3.2,4.4-4.8,9.8-4.7,15.3
				c0.1,4.2,0.8,10.3,2.9,16.6c3.9,11.7,12.3,19.3,15.3,21c2.9,1.6,9.3,3.3,11.7,2.3c2.4-1,3.5-1.6,3.5-1.6"/>
			<path class="st2" d="M315.9,349.1c0,0-0.6-5,4.7-4c5.4,1,11.3,5.2,13,11.3c1.7,6,1.2,7.8-1.4,7.8s-10.8-3.4-13.4-6.5
				S315.9,349.1,315.9,349.1"/>
			<path class="st2" d="M367.8,388.3c-0.2-3.3-1.2-6.6-2.9-9.5c-2.3-3.9-6.3-8.8-12.5-10c-5.8-1.1-10.3-0.3-13.2,0.7
				c2.6-3.1,8.1-8.2,9.6-9.3c0,0,0,0,0.1,0c1.2-0.9,1-2.8-0.4-3.5c-1.8-0.9-4.5-2.1-4.9-2.1c-0.4,0-1.6,0.5-2.3,0.8
				c-0.4,0.2-0.8,0.5-1,0.9l-7.2,13.7c-0.2,0.5-0.3,0.9-0.2,1.4h-1.8v12h4.6l1.5,46.9c0,0,1.1,0.6,3.6,1.4c2.5,0.8,8.7-1.3,11.5-3.1
				c2.8-1.8,10.7-10.1,13.7-22C368.1,399.3,368.1,392.5,367.8,388.3"/>
		</g>
	</g>
</g>
</svg>
